<svg width="800" height="800" viewBox="0 0 800 800" fill="none" xmlns="http://www.w3.org/2000/svg">
<rect width="800" height="800" fill="black"/>
<path d="M140.629 393.836L110.025 395.72C109.501 393.104 108.377 390.75 106.65 388.657C104.924 386.512 102.648 384.812 99.8231 383.556C97.0504 382.249 93.7283 381.595 89.857 381.595C84.6778 381.595 80.3094 382.693 76.752 384.891C73.1945 387.035 71.4158 389.913 71.4158 393.523C71.4158 396.4 72.5667 398.833 74.8686 400.821C77.1705 402.809 81.1203 404.404 86.7181 405.607L108.534 410.002C120.252 412.408 128.989 416.28 134.744 421.616C140.498 426.952 143.376 433.962 143.376 442.647C143.376 450.546 141.048 457.478 136.392 463.442C131.788 469.406 125.458 474.062 117.401 477.41C109.397 480.706 100.163 482.354 89.7001 482.354C73.7438 482.354 61.0312 479.032 51.5621 472.388C42.1453 465.692 36.626 456.589 35.0043 445.079L67.8845 443.353C68.8785 448.218 71.285 451.933 75.104 454.496C78.9231 457.007 83.8146 458.263 89.7785 458.263C95.6379 458.263 100.346 457.138 103.904 454.889C107.513 452.587 109.344 449.631 109.397 446.021C109.344 442.987 108.063 440.502 105.552 438.566C103.04 436.578 99.1691 435.061 93.9376 434.015L73.0637 429.856C61.2928 427.501 52.5299 423.421 46.7752 417.614C41.0729 411.807 38.2217 404.404 38.2217 395.406C38.2217 387.663 40.3143 380.993 44.4995 375.395C48.7371 369.798 54.6749 365.482 62.3129 362.447C70.0033 359.413 79.0015 357.896 89.3077 357.896C104.531 357.896 116.512 361.113 125.248 367.548C134.037 373.983 139.164 382.746 140.629 393.836ZM197.856 410.316V480H164.426V319.287H196.914V380.731H198.327C201.047 373.617 205.441 368.045 211.51 364.017C217.579 359.936 225.19 357.896 234.346 357.896C242.716 357.896 250.014 359.727 256.24 363.389C262.518 366.999 267.383 372.204 270.836 379.005C274.341 385.754 276.067 393.836 276.015 403.253V480H242.585V409.217C242.638 401.788 240.754 396.008 236.935 391.875C233.169 387.742 227.885 385.675 221.084 385.675C216.532 385.675 212.504 386.643 208.999 388.579C205.546 390.514 202.826 393.339 200.838 397.054C198.902 400.716 197.908 405.137 197.856 410.316ZM356.783 482.354C344.594 482.354 334.052 479.765 325.159 474.585C316.317 469.354 309.49 462.082 304.677 452.77C299.864 443.405 297.458 432.55 297.458 420.203C297.458 407.752 299.864 396.871 304.677 387.559C309.49 378.194 316.317 370.922 325.159 365.743C334.052 360.512 344.594 357.896 356.783 357.896C368.973 357.896 379.488 360.512 388.33 365.743C397.223 370.922 404.077 378.194 408.89 387.559C413.703 396.871 416.109 407.752 416.109 420.203C416.109 432.55 413.703 443.405 408.89 452.77C404.077 462.082 397.223 469.354 388.33 474.585C379.488 479.765 368.973 482.354 356.783 482.354ZM356.94 456.458C362.486 456.458 367.116 454.889 370.83 451.75C374.544 448.558 377.343 444.216 379.227 438.723C381.162 433.23 382.13 426.978 382.13 419.968C382.13 412.958 381.162 406.706 379.227 401.213C377.343 395.72 374.544 391.378 370.83 388.186C367.116 384.995 362.486 383.4 356.94 383.4C351.343 383.4 346.634 384.995 342.815 388.186C339.048 391.378 336.197 395.72 334.262 401.213C332.378 406.706 331.437 412.958 331.437 419.968C331.437 426.978 332.378 433.23 334.262 438.723C336.197 444.216 339.048 448.558 342.815 451.75C346.634 454.889 351.343 456.458 356.94 456.458ZM437.846 525.201V359.465H470.805V379.711H472.296C473.761 376.468 475.879 373.172 478.652 369.824C481.477 366.423 485.139 363.598 489.638 361.349C494.19 359.047 499.84 357.896 506.589 357.896C515.378 357.896 523.487 360.198 530.915 364.801C538.344 369.353 544.282 376.232 548.729 385.44C553.176 394.595 555.399 406.078 555.399 419.89C555.399 433.335 553.228 444.687 548.886 453.947C544.596 463.154 538.736 470.139 531.308 474.899C523.931 479.608 515.665 481.962 506.51 481.962C500.023 481.962 494.504 480.889 489.952 478.744C485.453 476.599 481.765 473.905 478.888 470.662C476.01 467.366 473.813 464.044 472.296 460.696H471.276V525.201H437.846ZM470.569 419.733C470.569 426.9 471.563 433.152 473.551 438.488C475.539 443.824 478.417 447.983 482.184 450.965C485.95 453.895 490.528 455.359 495.916 455.359C501.357 455.359 505.961 453.868 509.728 450.886C513.494 447.852 516.345 443.667 518.281 438.331C520.269 432.942 521.263 426.743 521.263 419.733C521.263 412.775 520.295 406.654 518.36 401.37C516.424 396.086 513.573 391.953 509.806 388.971C506.039 385.989 501.409 384.498 495.916 384.498C490.475 384.498 485.872 385.937 482.105 388.814C478.391 391.692 475.539 395.772 473.551 401.056C471.563 406.34 470.569 412.565 470.569 419.733ZM612.292 319.287V480H578.313V319.287H612.292ZM634.127 347.302V319.287H766.119V347.302H716.916V480H683.33V347.302H634.127Z" fill="white"/>
</svg>
